<svg width="29" height="22" viewBox="0 0 29 22" fill="none" xmlns="http://www.w3.org/2000/svg">
<path d="M18.6251 8.58951C18.5453 8.51514 18.4515 8.45726 18.3492 8.41917C18.247 8.38108 18.1382 8.36353 18.0291 8.36754C17.92 8.37154 17.8128 8.39702 17.7136 8.44251C17.6144 8.488 17.5251 8.55261 17.4509 8.63264L14.3385 11.9825L10.9886 8.86999C10.9087 8.79572 10.8149 8.73792 10.7127 8.69989C10.6104 8.66187 10.5016 8.64436 10.3926 8.64836C10.2836 8.65237 10.1764 8.67781 10.0772 8.72323C9.97797 8.76866 9.88869 8.83318 9.81442 8.91311C9.74015 8.99304 9.68236 9.08682 9.64433 9.18909C9.6063 9.29135 9.58879 9.40011 9.5928 9.50915C9.5968 9.61818 9.62224 9.72536 9.66767 9.82456C9.7131 9.92377 9.77762 10.0131 9.85755 10.0873L13.8204 13.7694C13.9002 13.8437 13.994 13.9016 14.0963 13.9397C14.1986 13.9778 14.3073 13.9953 14.4164 13.9913C14.5255 13.9873 14.6327 13.9618 14.7319 13.9164C14.8311 13.8709 14.9204 13.8063 14.9946 13.7262L18.6766 9.76342C18.9814 9.43534 18.9619 8.90237 18.6251 8.58951Z" fill="#667080"/>
</svg>
