<svg width="26" height="29" viewBox="0 0 26 29" fill="none" xmlns="http://www.w3.org/2000/svg">
<path d="M13.0117 9.4993C15.6672 9.4993 18.3226 9.51013 20.9727 9.48847C21.5124 9.48847 21.7368 9.55344 21.7314 10.2032C21.6994 15.2498 21.7207 20.2964 21.7101 25.343C21.7101 27.1083 20.5827 28.332 18.8302 28.3537C15.0153 28.4024 11.1951 28.4132 7.38026 28.3808C5.34994 28.3591 4.28135 27.1949 4.27601 25.1264C4.26532 20.1394 4.27601 15.1524 4.25464 10.1653C4.25464 9.58052 4.42561 9.47222 4.95457 9.47764C7.63673 9.50471 10.3242 9.48847 13.0064 9.48847L13.0117 9.4993ZM9.13809 18.8182C9.13809 20.2044 9.14344 21.596 9.13809 22.9822C9.13809 23.6644 9.40524 24.0922 10.1212 24.0922C10.8158 24.0922 11.0509 23.6157 11.0562 23.0147C11.0722 20.2694 11.0722 17.524 11.0562 14.7787C11.0562 14.1344 10.6875 13.7283 10.0571 13.7608C9.44798 13.7878 9.11672 14.1614 9.12741 14.8383C9.15412 16.1649 9.13275 17.4916 9.13809 18.8182ZM16.8693 18.9373C16.8693 17.6107 16.8587 16.2786 16.8693 14.952C16.8747 14.286 16.6503 13.7824 15.9504 13.7608C15.2237 13.7337 14.9085 14.2048 14.9085 14.9249C14.9138 17.5836 14.9138 20.2423 14.9085 22.901C14.9085 23.6049 15.1649 24.0976 15.9236 24.0868C16.6503 24.0814 16.864 23.5832 16.864 22.928C16.864 21.6014 16.864 20.2694 16.864 18.9427L16.8693 18.9373Z" stroke="#ED1C24" stroke-miterlimit="10"/>
<path d="M12.9636 7.58787C9.65095 7.58787 6.34367 7.58787 3.03104 7.58787C1.81819 7.58787 1.3587 7.32254 1.33732 6.6132C1.31595 5.71434 2.13342 4.83714 3.11118 4.80465C4.44692 4.76134 5.788 4.75592 7.12374 4.79383C7.82366 4.81548 8.1763 4.73968 8.14424 3.84623C8.08547 2.28135 9.35709 1.04136 10.9065 1.01429C12.2209 0.992626 13.5299 0.998041 14.8443 1.01429C16.6502 1.03594 17.7722 2.07559 17.8096 3.90038C17.8257 4.7126 18.1088 4.81548 18.7981 4.78841C20.1071 4.73426 21.4215 4.783 22.7358 4.78841C23.4518 4.78841 23.9914 5.1133 24.3708 5.71976C24.6433 6.15294 24.7234 6.65111 24.499 7.10595C24.2799 7.5608 23.8098 7.5987 23.3396 7.59328C19.8827 7.58245 16.4205 7.58787 12.9636 7.58787ZM12.9796 4.79383C13.7811 4.79383 14.5825 4.79383 15.3893 4.79383C15.6244 4.79383 15.8434 4.81007 15.9289 4.47435C16.1426 3.61881 15.6404 2.88781 14.7481 2.86615C13.5887 2.84449 12.4293 2.86074 11.2699 2.85532C10.9974 2.85532 10.7463 2.89323 10.5112 3.05567C9.96619 3.42929 10.0089 4.00868 10.0998 4.52308C10.1799 4.97251 10.6394 4.76134 10.9279 4.77758C11.6118 4.81007 12.2957 4.78841 12.9796 4.78841V4.79383Z" stroke="#ED1C24" stroke-miterlimit="10"/>
</svg>
