<svg width="25" height="29" viewBox="0 0 25 29" fill="none" xmlns="http://www.w3.org/2000/svg">
<path d="M8.93525 22.5507C8.29397 22.5507 7.65804 22.5769 7.01677 22.5442C6.39687 22.5115 6.02279 22.171 6.03883 21.3199C6.0602 19.8796 6.05486 18.4393 6.03883 16.999C6.03348 16.4556 6.19914 16.0628 6.51444 15.6896C9.4162 12.2918 12.3073 8.89397 15.1877 5.4765C15.5243 5.07714 15.7381 4.92657 16.1442 5.42413C17.6085 7.21797 19.1048 8.97253 20.6171 10.7009C20.9805 11.1134 20.9378 11.3098 20.6011 11.7091C17.8222 14.9433 15.0487 18.184 12.3126 21.4771C11.6607 22.2627 11.0087 22.721 10.0842 22.5638C9.71012 22.4984 9.32001 22.5507 8.93525 22.5507Z" stroke="#1F1E1C" stroke-miterlimit="10"/>
<path d="M9.72628 28.3971C7.73298 28.3971 5.73969 28.3971 3.74639 28.3971C2.10045 28.3971 1.07442 27.2383 1.06373 25.2415C1.03166 20.4819 1.03701 15.7158 1.05838 10.9562C1.06907 9.05763 2.07908 7.88574 3.62883 7.8792C5.08773 7.8661 6.54128 7.8792 8.00018 7.8661C8.54526 7.8661 8.93537 8.12143 8.9514 8.79576C8.96744 9.52901 8.56664 9.81052 7.98949 9.80398C6.63213 9.79088 5.28011 9.79088 3.92274 9.80398C2.97686 9.80398 2.71501 10.1444 2.70967 11.3294C2.70967 15.8075 2.70967 20.2921 2.70967 24.7701C2.70967 26.217 2.8967 26.4461 4.10444 26.4461C7.9414 26.4461 11.7784 26.4461 15.6153 26.4461C16.6146 26.4461 16.8391 26.1712 16.8444 24.9731C16.8498 23.4673 16.8444 21.9681 16.8391 20.4623C16.8391 19.729 16.9887 19.1267 17.7101 19.1398C18.3942 19.1529 18.5224 19.7225 18.5171 20.4295C18.5064 21.9943 18.5171 23.559 18.5171 25.1171C18.5171 27.199 17.5552 28.3905 15.8665 28.3971C13.8197 28.4036 11.773 28.3971 9.72628 28.3971Z" stroke="#1F1E1C" stroke-miterlimit="10"/>
<path d="M24.3307 6.07884C24.3628 7.18526 23.8391 7.89232 23.2619 8.5732C22.2145 9.79746 22.2145 9.81055 21.1778 8.60593C19.8632 7.08051 18.5646 5.53545 17.25 4.01657C16.9507 3.66959 16.8759 3.447 17.2393 3.08037C17.95 2.34712 18.4898 1.352 19.4891 1.08358C20.3281 0.860982 21.0709 1.08358 21.6962 1.74481C22.4069 2.4977 23.0802 3.30951 23.7375 4.14096C24.1544 4.67126 24.3788 5.33904 24.3307 6.07229V6.07884Z" stroke="#1F1E1C" stroke-miterlimit="10"/>
</svg>
