<svg width="38" height="33" viewBox="0 0 38 33" fill="none" xmlns="http://www.w3.org/2000/svg">
<path fill-rule="evenodd" clip-rule="evenodd" d="M30.4751 2.62194C29.9623 2.3684 29.3065 2.51887 29.0105 2.95799L25.7314 7.82306C23.4974 6.93963 21.1848 6.48792 18.8439 6.48792C12.554 6.48792 6.46934 9.75096 1.56271 15.8852L1.54325 15.9093L1.52623 15.9301C1.36279 16.1278 1.35862 16.3603 1.52541 16.5557C5.14607 21.0992 9.41253 24.0749 13.9309 25.3256L11.3187 29.1984C11.0226 29.6376 11.1983 30.1991 11.7111 30.4526L12.1754 30.6821C12.6882 30.9356 13.3439 30.7853 13.6401 30.3461L31.3317 4.10565C31.6279 3.66653 31.4522 3.10503 30.9393 2.85148L30.4751 2.62194ZM24.309 9.93281C22.4907 9.2565 20.6548 8.92685 18.8439 8.92685C14.2737 8.92685 9.54268 11.0266 5.34099 15.5C4.93763 15.9294 4.93763 16.5555 5.34099 16.9849C8.49055 20.3382 11.9375 22.3583 15.3912 23.1598L17.1971 20.4811C15.1341 19.9252 13.4282 18.3746 13.4282 16.2449C13.4282 13.551 15.8722 11.367 18.8865 11.367C20.2779 11.367 21.5477 11.8323 22.5119 12.5983L24.309 9.93281ZM21.0214 14.8091C20.5572 14.201 19.7939 13.8059 18.8865 13.8059C17.3781 13.8059 16.1444 14.8961 16.1444 16.2431C16.1444 17.1333 17.2745 18.1735 18.694 18.261L21.0214 14.8091Z" fill="black"/>
<path d="M19.746 25.9759C25.7016 25.6801 31.4304 22.4576 36.0954 16.6403C36.1931 16.5185 36.2477 16.3925 36.2477 16.2426C36.2477 16.0997 36.2008 15.9803 36.1078 15.8642C34.315 13.6248 32.3644 11.7692 30.3041 10.3162L28.8845 12.4218C30.0675 13.2824 31.226 14.3067 32.3468 15.5C32.7502 15.9295 32.7502 16.5555 32.3468 16.985C28.9671 20.5834 25.2449 22.6466 21.5393 23.3162L19.746 25.9759Z" fill="black"/>
</svg>
