<svg width="22" height="22" viewBox="0 0 22 22" fill="none" xmlns="http://www.w3.org/2000/svg">
<path d="M1 15.2759C1.08275 15.168 1.18244 15.0836 1.29058 15.0065C2.04666 14.4707 2.79992 13.9308 3.55505 13.393C3.83529 13.1935 3.97259 13.2243 4.14656 13.5246C4.29828 13.7865 4.49576 13.8348 4.73901 13.6696C5.65308 13.0495 6.56996 12.4346 7.47932 11.8073C7.82633 11.5676 8.1818 11.4782 8.58805 11.5676C10.3071 11.944 12.029 12.3091 13.7489 12.6814C13.9154 12.7174 14.08 12.7832 14.205 12.9066C14.3263 13.0259 14.4035 12.9847 14.5144 12.8922C15.4953 12.0767 16.4789 11.2653 17.4644 10.457C17.7325 10.238 17.9807 9.98396 18.3268 9.90066C18.9014 9.76183 19.5089 10.0508 19.8013 10.6195C20.091 11.183 20.0157 11.8967 19.585 12.343C18.9456 13.0074 18.2873 13.6511 17.6365 14.301C16.3623 15.5731 15.0777 16.8339 13.8176 18.1225C13.3765 18.5739 12.9054 18.6953 12.3233 18.5893C10.8422 18.3199 9.35541 18.0844 7.87053 17.8376C7.79436 17.8253 7.72006 17.8201 7.64483 17.8684C7.43324 18.0062 7.21883 18.1379 7.0016 18.2654C6.92073 18.3127 6.90192 18.359 6.95741 18.4464C7.0317 18.5626 7.10035 18.6829 7.16335 18.8063C7.26585 19.0048 7.24234 19.1652 7.07213 19.2876C6.24459 19.8851 5.41422 20.4774 4.58103 21.0656C4.39389 21.1983 4.23026 21.1345 4.09578 20.899C3.39049 19.6681 2.68613 18.4361 1.98177 17.2041C1.68931 16.693 1.39967 16.1809 1.10532 15.6719C1.07617 15.6215 1.06677 15.5495 1 15.531V15.2759ZM14.79 14.0676C14.79 15.0209 14.0847 15.7274 13.2722 15.5742C11.9782 15.3315 10.6917 15.0374 9.40243 14.7607C9.22282 14.7227 9.11279 14.5437 9.14288 14.373C9.17768 14.1756 9.34225 14.0635 9.54067 14.1057C10.7858 14.371 12.0299 14.6383 13.275 14.9037C13.6991 14.9942 14.0753 14.7381 14.1627 14.3021C14.2539 13.8496 14.0104 13.4238 13.5834 13.3303C11.8634 12.9549 10.1425 12.5868 8.4216 12.2196C8.24669 12.1826 8.07459 12.198 7.91473 12.307C6.88029 13.0115 5.84492 13.7138 4.8086 14.4152C4.72585 14.4707 4.70704 14.5119 4.76346 14.6096C5.34369 15.6174 5.92015 16.6272 6.49379 17.6391C6.55398 17.745 6.60476 17.745 6.69315 17.6875C6.92167 17.5394 7.15865 17.4077 7.3834 17.2525C7.53669 17.1465 7.69279 17.1239 7.86583 17.1537C9.35729 17.4057 10.8488 17.6535 12.3393 17.9065C12.6957 17.9672 13.022 18.0093 13.3352 17.6936C15.2376 15.7737 17.1551 13.8712 19.0669 11.9625C19.3979 11.6324 19.4459 11.1656 19.1835 10.8282C18.9145 10.4817 18.4998 10.4467 18.1415 10.7419C17.0742 11.6211 16.0097 12.5035 14.9395 13.3776C14.7815 13.5061 14.6649 13.6151 14.7711 13.8516C14.8059 13.9288 14.7881 14.0326 14.7909 14.0686L14.79 14.0676ZM3.70552 14.0933C3.68013 14.1098 3.65662 14.1231 3.63499 14.1386C3.03219 14.5684 2.43128 15.0003 1.82661 15.4271C1.74385 15.4857 1.7495 15.532 1.79651 15.6112C1.92441 15.8251 2.04478 16.0431 2.16891 16.2591C2.91088 17.5569 3.65192 18.8557 4.39483 20.1524C4.44279 20.2357 4.46818 20.3519 4.6083 20.2491C5.1951 19.8193 5.78849 19.4007 6.38188 18.9811C6.46276 18.9246 6.48909 18.8762 6.42514 18.7816C6.35931 18.686 6.30759 18.578 6.24929 18.4762C5.44243 17.0643 4.63557 15.6513 3.82683 14.2404C3.7958 14.1859 3.78263 14.1036 3.70552 14.0943V14.0933Z" fill="black" stroke="white" stroke-width="0.1" stroke-miterlimit="10"/>
<path d="M20.9998 5.67789C20.8683 5.88701 20.7009 5.94024 20.5004 5.93644C19.8023 5.92376 19.1052 5.93137 18.4072 5.93137C18.3485 5.93137 18.2889 5.93517 18.2313 5.92756C18.0421 5.89968 17.9201 5.72859 17.9229 5.50299C17.9267 5.26473 18.0572 5.10124 18.2606 5.0987C18.6522 5.0949 19.0428 5.09743 19.4344 5.09743C19.8061 5.09743 20.1778 5.11011 20.5495 5.09237C20.7416 5.08349 20.8919 5.14559 20.9998 5.36232V5.67662V5.67789Z" fill="black" stroke="white" stroke-width="0.1" stroke-miterlimit="10"/>
<path d="M13.3076 9.87925C11.0304 9.87409 9.19945 7.86571 9.20509 5.37947C9.21073 2.87879 11.0492 0.85286 13.3011 0.866277C15.5895 0.878662 17.4196 2.9046 17.4102 5.4156C17.4017 7.87293 15.552 9.88545 13.3076 9.88029V9.87925ZM13.2888 9.20429C15.1884 9.22183 16.7732 7.51893 16.792 5.4414C16.8108 3.31845 15.2682 1.56189 13.3678 1.54331C11.4147 1.5237 9.82888 3.22247 9.82042 5.34438C9.81197 7.48178 11.3442 9.18777 13.2888 9.20532V9.20429Z" fill="black" stroke="white" stroke-width="0.1" stroke-miterlimit="10"/>
<path d="M7.15986 5.09212C7.54649 5.09212 7.93217 5.09084 8.31881 5.09212C8.55819 5.09341 8.69024 5.24351 8.69214 5.50651C8.69404 5.76695 8.55914 5.93245 8.32356 5.93374C7.54459 5.93759 6.76468 5.93759 5.98572 5.93374C5.74443 5.93374 5.61618 5.77722 5.61523 5.51293C5.61523 5.23453 5.74348 5.09341 6.00092 5.09212C6.38755 5.09084 6.77323 5.09212 7.15986 5.09212Z" fill="black" stroke="white" stroke-width="0.1" stroke-miterlimit="10"/>
<path d="M7.71282 1.99314C7.78667 1.99014 7.84593 2.03015 7.9061 2.06816C8.27079 2.29923 8.63639 2.5273 8.99925 2.76037C9.198 2.88741 9.25362 3.06146 9.16245 3.23851C9.07036 3.41556 8.90352 3.45257 8.70568 3.32854C8.32914 3.09347 7.95442 2.8544 7.57971 2.61532C7.43839 2.5253 7.3764 2.39126 7.42836 2.21421C7.47213 2.06516 7.57424 1.99814 7.71373 1.99314H7.71282Z" fill="black" stroke="white" stroke-width="0.1" stroke-miterlimit="10"/>
<path d="M7.71866 9.03422C7.57161 9.01621 7.46749 8.95618 7.42822 8.81511C7.38347 8.65403 7.42 8.51296 7.55883 8.42292C7.79629 8.26885 8.03558 8.11877 8.27487 7.9677C8.42648 7.87165 8.57718 7.7706 8.73154 7.68056C8.90324 7.57951 9.07312 7.62453 9.15989 7.78461C9.24848 7.94769 9.20647 8.13078 9.03567 8.24183C8.65299 8.49095 8.26574 8.73207 7.87849 8.97219C7.82552 9.00521 7.7625 9.01921 7.71957 9.03522L7.71866 9.03422Z" fill="black" stroke="white" stroke-width="0.1" stroke-miterlimit="10"/>
<path d="M19.2049 2.33605C19.193 2.44858 19.1398 2.54704 19.0399 2.61033C18.6466 2.85949 18.2552 3.11167 17.8583 3.3538C17.6988 3.45126 17.531 3.39298 17.4494 3.23525C17.3697 3.08153 17.4128 2.88461 17.5659 2.78515C17.9564 2.53096 18.3487 2.28079 18.7456 2.03967C18.9629 1.90805 19.2113 2.06981 19.2049 2.33605Z" fill="black" stroke="white" stroke-width="0.1" stroke-miterlimit="10"/>
<path d="M17.727 7.62706C17.7874 7.62303 17.8532 7.6623 17.9191 7.70459C18.2777 7.93318 18.6381 8.15874 18.9958 8.38934C19.1953 8.51723 19.2538 8.69245 19.1641 8.86766C19.0727 9.04489 18.8998 9.08718 18.7077 8.96735C18.3253 8.7287 17.9456 8.484 17.566 8.24132C17.4269 8.1527 17.3839 8.01172 17.4251 7.8496C17.4635 7.69956 17.566 7.62706 17.7279 7.62706H17.727Z" fill="black" stroke="white" stroke-width="0.1" stroke-miterlimit="10"/>
<path d="M13.6259 4.26582C13.6259 4.45544 13.6347 4.64609 13.6229 4.83469C13.6131 4.99678 13.6514 5.07528 13.8183 5.12932C14.3149 5.29141 14.6565 5.64007 14.7968 6.16612C14.997 6.91543 14.575 7.69227 13.831 7.94306C13.6651 7.99913 13.5964 8.07356 13.6239 8.24687C13.6288 8.28153 13.6249 8.31721 13.6239 8.35187C13.621 8.6047 13.5022 8.75354 13.3059 8.75354C13.1116 8.75354 12.9899 8.60368 12.981 8.35187C12.9801 8.31007 12.9751 8.26624 12.981 8.22546C13.0046 8.06948 12.9486 7.9971 12.7945 7.94714C12.2007 7.75344 11.8091 7.23147 11.7708 6.61775C11.7561 6.38225 11.866 6.22831 12.0584 6.21302C12.2596 6.19772 12.3813 6.31394 12.4059 6.55658C12.4373 6.8665 12.5825 7.09588 12.8426 7.24778C12.931 7.29978 12.9801 7.29162 12.9801 7.17132C12.9791 6.70746 12.9771 6.2436 12.9801 5.77974C12.9801 5.66046 12.9015 5.65536 12.824 5.62682C12.2655 5.42394 11.8818 5.04572 11.7905 4.42078C11.6835 3.69186 12.079 3.04041 12.77 2.8039C12.9506 2.74171 13.0016 2.65505 12.982 2.47665C12.9732 2.39509 12.983 2.30639 13.0036 2.22687C13.0488 2.05153 13.1714 1.97812 13.3412 1.99545C13.5052 2.01177 13.6367 2.12289 13.6121 2.27785C13.5523 2.64996 13.7437 2.7621 14.0303 2.89157C14.5073 3.1077 14.7782 3.52568 14.837 4.07008C14.8675 4.35044 14.7497 4.51967 14.5426 4.53292C14.3463 4.54618 14.2177 4.40447 14.1922 4.13125C14.1637 3.82949 14.0008 3.63069 13.7603 3.48491C13.6651 3.42781 13.617 3.43495 13.621 3.56952C13.6278 3.80094 13.6229 4.03338 13.6229 4.26582H13.6259ZM14.1991 6.53619C14.1932 6.21098 14.0352 5.98363 13.7692 5.82562C13.6808 5.77362 13.622 5.76241 13.6229 5.90615C13.6278 6.3272 13.6278 6.74926 13.6229 7.1703C13.621 7.31405 13.6799 7.30283 13.7692 7.24982C14.0342 7.0918 14.1932 6.86446 14.1981 6.53619H14.1991ZM12.982 4.19548C12.982 3.98547 12.9791 3.77545 12.983 3.56646C12.985 3.45738 12.9545 3.4268 12.8564 3.48287C12.5825 3.64088 12.4108 3.8774 12.4127 4.20465C12.4147 4.5319 12.5835 4.76842 12.8613 4.92236C12.9506 4.97232 12.982 4.94479 12.981 4.8459C12.9791 4.62875 12.981 4.41263 12.981 4.19548H12.982Z" fill="black" stroke="white" stroke-width="0.1" stroke-miterlimit="10"/>
</svg>
