<svg width="17" height="17" viewBox="0 0 17 17" fill="none" xmlns="http://www.w3.org/2000/svg">
<path d="M12.6989 7.68726H3.38394C2.649 7.68726 2.05322 8.26425 2.05322 8.97601V13.4866C2.05322 14.1984 2.649 14.7754 3.38394 14.7754H12.6989C13.4339 14.7754 14.0296 14.1984 14.0296 13.4866V8.97601C14.0296 8.26425 13.4339 7.68726 12.6989 7.68726Z" stroke="#EB4E4E" stroke-linecap="round" stroke-linejoin="round"/>
<path d="M4.7146 7.68733V5.10982C4.7146 4.25533 5.0651 3.43583 5.68899 2.83161C6.31289 2.22739 7.15907 1.88794 8.04138 1.88794C8.9237 1.88794 9.76988 2.22739 10.3938 2.83161C11.0177 3.43583 11.3682 4.25533 11.3682 5.10982V7.68733" stroke="#EB4E4E" stroke-linecap="round" stroke-linejoin="round"/>
</svg>
