<svg width="97" height="152" viewBox="0 0 97 152" fill="none" xmlns="http://www.w3.org/2000/svg">
<path d="M95.1817 34.4172L88.4005 29.4532L48.1848 0.0106166L48.1608 -0.00488281L7.95465 29.4119L1.17347 34.3758C0.442453 34.9182 0 35.8118 0 36.7674V36.8087C0 39.128 2.41909 40.502 4.20336 39.1951L7.95465 36.4523V56.7316H13.9038L13.7066 32.2425L48.1511 7.03552L48.1848 7.05102L48.204 7.03552L82.6534 32.2425L82.6726 56.7316H88.4005V36.4575L92.1518 39.2003C93.9409 40.5071 96.36 39.1332 96.36 36.8139C96.36 35.8583 95.9175 34.9647 95.1817 34.4223V34.4172Z" fill="#2E7544"/>
<path d="M40.5669 94.4389C40.7689 95.1672 40.0042 96.8305 37.9506 96.6342C35.8585 96.4379 26.0619 91.4636 26.0619 91.4636L38.8547 92.9616C39.6435 93.0546 40.3408 93.6176 40.5717 94.4337L40.5669 94.4389Z" fill="#CE762F"/>
<path d="M40.5669 94.4389C40.7689 95.1672 40.0042 96.8305 37.9506 96.6342C35.8585 96.4379 26.0619 91.4636 26.0619 91.4636L38.8547 92.9616C39.6435 93.0546 40.3408 93.6176 40.5717 94.4337L40.5669 94.4389Z" fill="#CE762F"/>
<path d="M44.8617 101.412C44.881 102.492 44.3135 103.54 41.9424 103.385C37.5419 99.0051 32.1602 95.0691 26.0572 91.4636L43.0342 98.7003C44.0826 99.1445 44.8377 100.203 44.8617 101.412Z" fill="#CE762F"/>
<path d="M44.8617 101.412C44.881 102.492 44.3135 103.54 41.9424 103.385C37.5419 99.0051 32.1602 95.0691 26.0572 91.4636L43.0342 98.7003C44.0826 99.1445 44.8377 100.203 44.8617 101.412Z" fill="#CE762F"/>
<path d="M25.0134 99.501C30.573 104.201 36.224 106.686 41.9471 107.461C43.0196 107.605 43.8468 106.423 43.3659 105.384C41.7499 101.887 35.0794 96.9545 27.9615 91.8924C25.1577 89.8986 22.7963 87.2487 21.1804 84.0824C19.9828 81.7424 19.0691 78.9325 19.3095 76.0399C19.5548 73.1163 22.1278 71.0708 24.7922 71.7164C25.0567 71.7784 25.3308 71.8559 25.6242 71.9489C26.1628 72.1193 26.7015 72.2795 27.2305 72.4706C28.832 73.044 34.358 74.7795 35.1996 71.6906C35.921 69.6658 32.3332 68.0335 27.8894 66.1843C16.4528 61.4322 7.95467 43.6995 7.95467 43.6995C7.08899 74.764 9.49847 86.3861 25.0086 99.4958L25.0134 99.501Z" fill="#CE762F"/>
<path d="M55.7932 94.4389C55.5912 95.1672 56.3559 96.8305 58.4095 96.6342C60.5015 96.4379 70.2982 91.4636 70.2982 91.4636L57.5053 92.9616C56.7166 93.0546 56.0192 93.6176 55.7884 94.4337L55.7932 94.4389Z" fill="#CE762F"/>
<path d="M55.7932 94.4389C55.5912 95.1672 56.3559 96.8305 58.4095 96.6342C60.5015 96.4379 70.2982 91.4636 70.2982 91.4636L57.5053 92.9616C56.7166 93.0546 56.0192 93.6176 55.7884 94.4337L55.7932 94.4389Z" fill="#CE762F"/>
<path d="M51.4984 101.412C51.4792 102.492 52.0467 103.54 54.4177 103.385C58.8182 99.0051 64.1999 95.0691 70.3029 91.4636L53.326 98.7003C52.2775 99.1445 51.5224 100.203 51.4984 101.412Z" fill="#CE762F"/>
<path d="M51.4984 101.412C51.4792 102.492 52.0467 103.54 54.4177 103.385C58.8182 99.0051 64.1999 95.0691 70.3029 91.4636L53.326 98.7003C52.2775 99.1445 51.5224 100.203 51.4984 101.412Z" fill="#CE762F"/>
<path d="M71.3467 99.501C65.7871 104.201 60.1361 106.686 54.413 107.461C53.3405 107.605 52.5133 106.423 52.9942 105.384C54.6102 101.887 61.2807 96.9545 68.3985 91.8924C71.2024 89.8986 73.5638 87.2487 75.1797 84.0824C76.3772 81.7424 77.291 78.9325 77.0505 76.0399C76.8053 73.1163 74.2323 71.0708 71.5679 71.7164C71.3034 71.7784 71.0292 71.8559 70.7359 71.9489C70.1972 72.1193 69.6586 72.2795 69.1296 72.4706C67.528 73.044 62.0021 74.7795 61.1605 71.6906C60.4391 69.6658 64.0268 68.0335 68.4707 66.1843C79.9073 61.4322 88.4054 43.6995 88.4054 43.6995C89.2711 74.764 86.8616 86.3861 71.3515 99.4958L71.3467 99.501Z" fill="#CE762F"/>
<path d="M48.5408 57.6614C52.6259 57.6614 55.9376 54.1046 55.9376 49.7171C55.9376 45.3295 52.6259 41.7727 48.5408 41.7727C44.4557 41.7727 41.144 45.3295 41.144 49.7171C41.144 54.1046 44.4557 57.6614 48.5408 57.6614Z" fill="#CE762F"/>
<path d="M66.268 41.251C66.268 41.251 70.077 50.5796 55.3075 59.3504C53.5233 60.4093 51.8111 61.5974 50.224 62.9662C44.9001 67.5686 36.0028 77.4964 40.4082 89.6919C41.3797 92.383 43.8517 94.1961 46.5305 93.9688C48.9159 93.7673 51.3158 91.9543 51.3831 85.4872C51.3831 85.4872 48.9977 88.416 47.0354 86.3344C46.6122 85.885 46.3189 85.3116 46.1553 84.6969C45.5878 82.5791 45.4147 77.1038 55.3075 70.6626C67.6194 62.522 76.3436 52.1551 66.268 41.251Z" fill="#CE762F"/>
<path style="mix-blend-mode:multiply" d="M54.4226 65.766C53.5617 64.3661 52.4556 63.0025 50.9887 62.3413C50.729 62.5479 50.4693 62.7545 50.2192 62.9715C47.1364 65.6368 42.8513 70.0945 40.6534 75.7403C42.6205 78.0079 44.4288 80.4098 45.9437 83.0441C45.9245 80.353 47.3913 75.8178 55.3075 70.6627C55.6923 70.4096 56.0722 70.1514 56.4521 69.8931C55.8702 68.4674 55.2258 67.0625 54.4226 65.766Z" fill="url(#paint0_radial_2837_11977)"/>
<path d="M51.234 83.3075C50.7049 79.8828 49.0457 76.7629 46.6362 74.4488C45.3762 73.2401 43.7843 71.9695 41.774 70.6626C29.4621 62.522 20.7379 52.1551 30.8135 41.251C30.8135 41.251 26.942 50.7243 42.1203 59.5571C43.8179 60.5437 45.4098 61.7162 46.9104 63.0179C50.4837 66.1068 56.505 71.5562 58.1979 78.4623C61.7327 93.9894 47.4634 101.918 41.0526 91.0349C42.9811 93.5917 44.9001 94.3149 47.1556 93.881C49.7863 93.3696 51.383 90.57 51.383 85.4924C51.4071 84.8002 51.3542 84.0719 51.2388 83.3126L51.234 83.3075Z" fill="#2E7544"/>
<path d="M24.516 141.084C24.516 140.268 24.7 139.536 25.068 138.888C25.436 138.232 25.936 137.72 26.568 137.352C27.208 136.984 27.916 136.8 28.692 136.8C29.604 136.8 30.4 137.02 31.08 137.46C31.76 137.9 32.256 138.524 32.568 139.332H31.26C31.028 138.828 30.692 138.44 30.252 138.168C29.82 137.896 29.3 137.76 28.692 137.76C28.108 137.76 27.584 137.896 27.12 138.168C26.656 138.44 26.292 138.828 26.028 139.332C25.764 139.828 25.632 140.412 25.632 141.084C25.632 141.748 25.764 142.332 26.028 142.836C26.292 143.332 26.656 143.716 27.12 143.988C27.584 144.26 28.108 144.396 28.692 144.396C29.3 144.396 29.82 144.264 30.252 144C30.692 143.728 31.028 143.34 31.26 142.836H32.568C32.256 143.636 31.76 144.256 31.08 144.696C30.4 145.128 29.604 145.344 28.692 145.344C27.916 145.344 27.208 145.164 26.568 144.804C25.936 144.436 25.436 143.928 25.068 143.28C24.7 142.632 24.516 141.9 24.516 141.084ZM37.9855 145.356C37.2095 145.356 36.5015 145.176 35.8615 144.816C35.2215 144.448 34.7135 143.94 34.3375 143.292C33.9695 142.636 33.7855 141.9 33.7855 141.084C33.7855 140.268 33.9695 139.536 34.3375 138.888C34.7135 138.232 35.2215 137.724 35.8615 137.364C36.5015 136.996 37.2095 136.812 37.9855 136.812C38.7695 136.812 39.4815 136.996 40.1215 137.364C40.7615 137.724 41.2655 138.228 41.6335 138.876C42.0015 139.524 42.1855 140.26 42.1855 141.084C42.1855 141.908 42.0015 142.644 41.6335 143.292C41.2655 143.94 40.7615 144.448 40.1215 144.816C39.4815 145.176 38.7695 145.356 37.9855 145.356ZM37.9855 144.408C38.5695 144.408 39.0935 144.272 39.5575 144C40.0295 143.728 40.3975 143.34 40.6615 142.836C40.9335 142.332 41.0695 141.748 41.0695 141.084C41.0695 140.412 40.9335 139.828 40.6615 139.332C40.3975 138.828 40.0335 138.44 39.5695 138.168C39.1055 137.896 38.5775 137.76 37.9855 137.76C37.3935 137.76 36.8655 137.896 36.4015 138.168C35.9375 138.44 35.5695 138.828 35.2975 139.332C35.0335 139.828 34.9015 140.412 34.9015 141.084C34.9015 141.748 35.0335 142.332 35.2975 142.836C35.5695 143.34 35.9375 143.728 36.4015 144C36.8735 144.272 37.4015 144.408 37.9855 144.408ZM44.7191 144.384H47.6471V145.272H43.6271V136.908H44.7191V144.384ZM49.8988 144.384H52.8268V145.272H48.8068V136.908H49.8988V144.384ZM55.0785 137.796V140.592H58.1265V141.492H55.0785V144.372H58.4865V145.272H53.9865V136.896H58.4865V137.796H55.0785ZM66.4748 139.332C66.2428 138.844 65.9068 138.468 65.4668 138.204C65.0268 137.932 64.5148 137.796 63.9308 137.796C63.3468 137.796 62.8188 137.932 62.3468 138.204C61.8828 138.468 61.5148 138.852 61.2428 139.356C60.9788 139.852 60.8468 140.428 60.8468 141.084C60.8468 141.74 60.9788 142.316 61.2428 142.812C61.5148 143.308 61.8828 143.692 62.3468 143.964C62.8188 144.228 63.3468 144.36 63.9308 144.36C64.7468 144.36 65.4188 144.116 65.9468 143.628C66.4748 143.14 66.7828 142.48 66.8708 141.648H63.5348V140.76H68.0348V141.6C67.9708 142.288 67.7548 142.92 67.3868 143.496C67.0188 144.064 66.5348 144.516 65.9348 144.852C65.3348 145.18 64.6668 145.344 63.9308 145.344C63.1548 145.344 62.4468 145.164 61.8068 144.804C61.1668 144.436 60.6588 143.928 60.2828 143.28C59.9148 142.632 59.7308 141.9 59.7308 141.084C59.7308 140.268 59.9148 139.536 60.2828 138.888C60.6588 138.232 61.1668 137.724 61.8068 137.364C62.4468 136.996 63.1548 136.812 63.9308 136.812C64.8188 136.812 65.6028 137.032 66.2828 137.472C66.9708 137.912 67.4708 138.532 67.7828 139.332H66.4748ZM70.5707 137.796V140.592H73.6187V141.492H70.5707V144.372H73.9787V145.272H69.4787V136.896H73.9787V137.796H70.5707Z" fill="#CE762F"/>
<path d="M17.964 126.32H14.628L14.076 127.916H12.312L15.324 119.528H17.28L20.292 127.916H18.516L17.964 126.32ZM17.508 124.976L16.296 121.472L15.084 124.976H17.508ZM27.1178 119.54V120.896H24.8858V127.916H23.2058V120.896H20.9738V119.54H27.1178ZM30.0236 119.54V127.916H28.3436V119.54H30.0236ZM43.6748 119.54V127.916H41.9948V122.468L39.7508 127.916H38.4788L36.2228 122.468V127.916H34.5428V119.54H36.4508L39.1148 125.768L41.7788 119.54H43.6748ZM47.0158 120.896V122.996H49.8358V124.328H47.0158V126.548H50.1958V127.916H45.3358V119.528H50.1958V120.896H47.0158ZM54.6505 119.54C55.5305 119.54 56.3025 119.712 56.9665 120.056C57.6385 120.4 58.1545 120.892 58.5145 121.532C58.8825 122.164 59.0665 122.9 59.0665 123.74C59.0665 124.58 58.8825 125.316 58.5145 125.948C58.1545 126.572 57.6385 127.056 56.9665 127.4C56.3025 127.744 55.5305 127.916 54.6505 127.916H51.7225V119.54H54.6505ZM54.5905 126.488C55.4705 126.488 56.1505 126.248 56.6305 125.768C57.1105 125.288 57.3505 124.612 57.3505 123.74C57.3505 122.868 57.1105 122.188 56.6305 121.7C56.1505 121.204 55.4705 120.956 54.5905 120.956H53.4025V126.488H54.5905ZM62.0041 119.54V127.916H60.3241V119.54H62.0041ZM63.2559 123.716C63.2559 122.892 63.4399 122.156 63.8079 121.508C64.1839 120.852 64.6919 120.344 65.3319 119.984C65.9799 119.616 66.7039 119.432 67.5039 119.432C68.4399 119.432 69.2599 119.672 69.9639 120.152C70.6679 120.632 71.1599 121.296 71.4399 122.144H69.5079C69.3159 121.744 69.0439 121.444 68.6919 121.244C68.3479 121.044 67.9479 120.944 67.4919 120.944C67.0039 120.944 66.5679 121.06 66.1839 121.292C65.8079 121.516 65.5119 121.836 65.2959 122.252C65.0879 122.668 64.9839 123.156 64.9839 123.716C64.9839 124.268 65.0879 124.756 65.2959 125.18C65.5119 125.596 65.8079 125.92 66.1839 126.152C66.5679 126.376 67.0039 126.488 67.4919 126.488C67.9479 126.488 68.3479 126.388 68.6919 126.188C69.0439 125.98 69.3159 125.676 69.5079 125.276H71.4399C71.1599 126.132 70.6679 126.8 69.9639 127.28C69.2679 127.752 68.4479 127.988 67.5039 127.988C66.7039 127.988 65.9799 127.808 65.3319 127.448C64.6919 127.08 64.1839 126.572 63.8079 125.924C63.4399 125.276 63.2559 124.54 63.2559 123.716ZM78.0109 126.32H74.6749L74.1229 127.916H72.3589L75.3709 119.528H77.3269L80.3389 127.916H78.5629L78.0109 126.32ZM77.5549 124.976L76.3429 121.472L75.1309 124.976H77.5549ZM83.1447 126.584H85.9047V127.916H81.4647V119.54H83.1447V126.584Z" fill="#2E7544"/>
<defs>
<radialGradient id="paint0_radial_2837_11977" cx="0" cy="0" r="1" gradientUnits="userSpaceOnUse" gradientTransform="translate(47.6602 73.9699) rotate(-46.0855) scale(6.89865 23.8656)">
<stop stop-color="#C156A5"/>
<stop offset="0.23" stop-color="#CA72B2" stop-opacity="0.77"/>
<stop offset="0.74" stop-color="#E2B8D4" stop-opacity="0.19"/>
<stop offset="0.9" stop-color="#EACFE0" stop-opacity="0"/>
</radialGradient>
</defs>
</svg>
