<svg width="28" height="33" viewBox="0 0 28 33" fill="none" xmlns="http://www.w3.org/2000/svg">
<path d="M24.9188 13.7879C24.9188 7.66398 19.9405 2.69388 13.8066 2.69388C7.67262 2.69388 2.69434 7.66398 2.69434 13.7879V25.5918H24.9188V13.7879Z" fill="url(#paint0_linear_84_448)"/>
<path d="M25.2964 29.6326H2.31587C1.03917 29.6326 0 28.726 0 27.6122C0 26.4984 1.03917 25.5918 2.31587 25.5918H25.2964C26.5731 25.5918 27.6122 26.4984 27.6122 27.6122C27.6122 28.726 26.5731 29.6326 25.2964 29.6326Z" fill="url(#paint1_linear_84_448)"/>
<path d="M13.806 33C15.4831 33 16.8366 31.4961 16.8366 29.6327H10.7754C10.7754 31.4961 12.1289 33 13.806 33Z" fill="url(#paint2_linear_84_448)"/>
<path d="M13.8064 5.38775C15.1082 5.38775 16.1635 4.18166 16.1635 2.69388C16.1635 1.20609 15.1082 0 13.8064 0C12.5045 0 11.4492 1.20609 11.4492 2.69388C11.4492 4.18166 12.5045 5.38775 13.8064 5.38775Z" fill="url(#paint3_linear_84_448)"/>
<defs>
<linearGradient id="paint0_linear_84_448" x1="13.8066" y1="2.69388" x2="13.8066" y2="25.5918" gradientUnits="userSpaceOnUse">
<stop stop-color="#07DBC9"/>
<stop offset="1" stop-color="#033C75"/>
</linearGradient>
<linearGradient id="paint1_linear_84_448" x1="13.8061" y1="25.5918" x2="13.8061" y2="29.6326" gradientUnits="userSpaceOnUse">
<stop stop-color="#07DBC9"/>
<stop offset="1" stop-color="#033C75"/>
</linearGradient>
<linearGradient id="paint2_linear_84_448" x1="13.806" y1="29.6327" x2="13.806" y2="33" gradientUnits="userSpaceOnUse">
<stop stop-color="#07DBC9"/>
<stop offset="1" stop-color="#033C75"/>
</linearGradient>
<linearGradient id="paint3_linear_84_448" x1="13.8064" y1="0" x2="13.8064" y2="5.38775" gradientUnits="userSpaceOnUse">
<stop stop-color="#07DBC9"/>
<stop offset="1" stop-color="#033C75"/>
</linearGradient>
</defs>
</svg>
