<svg width="33" height="33" viewBox="0 0 33 33" fill="none" xmlns="http://www.w3.org/2000/svg">
<path d="M32.8805 14.2448L32.7312 13.0856L28.6697 12.3425C28.5801 12.1047 28.4905 11.8669 28.4009 11.6291C28.3113 11.3914 28.1919 11.1833 28.1023 10.9455L30.4317 7.55708L29.7149 6.60595C29.2371 5.98176 28.7294 5.3873 28.1919 4.85229C27.6543 4.31727 27.057 3.78226 26.4299 3.33641L25.5041 2.62306L22.1294 4.97118C21.8905 4.85229 21.6814 4.76312 21.4425 4.64422C21.2036 4.55506 20.9647 4.46589 20.7557 4.37672L20.009 0.334384L18.8443 0.156046C17.3213 -0.0520153 15.7086 -0.0520153 14.1855 0.156046L13.0208 0.334384L12.2742 4.34699C12.0353 4.43616 11.7964 4.52533 11.5575 4.6145C11.3186 4.70367 11.0796 4.82256 10.8706 4.91173L7.49593 2.56361L6.57013 3.27696C5.94298 3.75253 5.37556 4.25783 4.80814 4.79284C4.30045 5.29813 3.76289 5.89259 3.28506 6.5465L2.56832 7.49764L4.9276 10.8563C4.80814 11.0941 4.71855 11.3022 4.62896 11.54C4.53936 11.7778 4.44977 12.0155 4.36018 12.2533L0.298638 12.9964L0.149319 14.1556C0.029862 14.9284 0 15.7309 0 16.474C0 17.2171 0.0597262 17.9899 0.149319 18.7924L0.298638 19.9516L4.36018 20.6947C4.44977 20.9324 4.53936 21.1702 4.62896 21.408C4.71855 21.6458 4.83801 21.8539 4.9276 22.0916L2.56832 25.4503L3.28506 26.4015C3.76289 27.0257 4.27058 27.6201 4.80814 28.1551C5.37556 28.6902 5.94298 29.2252 6.57013 29.671L7.49593 30.3844L10.8706 28.0363C11.1095 28.1551 11.3186 28.2443 11.5575 28.3335C11.7964 28.4227 12.0353 28.5118 12.2742 28.601L13.0208 32.6433L14.1855 32.8217C14.962 32.9406 15.7385 33 16.5149 33C17.2914 33 18.0679 32.9406 18.8443 32.8217L20.009 32.6433L20.7557 28.601C20.9946 28.5118 21.2335 28.4227 21.4425 28.3335C21.6814 28.2443 21.9204 28.1254 22.1294 28.0363L25.5041 30.3844L26.4299 29.671C27.0271 29.2252 27.6244 28.7199 28.1919 28.1551C28.7294 27.6201 29.2371 27.0257 29.7149 26.4015L30.4317 25.4503L28.0724 22.0619C28.1919 21.8241 28.2815 21.6161 28.371 21.3783C28.4606 21.1405 28.5502 20.9027 28.6398 20.6649L32.7014 19.9219L32.8507 18.7627C32.9701 17.9899 33 17.2171 33 16.4443C33 15.6715 32.9403 14.8987 32.8507 14.1259L32.8805 14.2448ZM16.4851 20.8433C13.9466 20.8433 11.9158 18.7924 11.9158 16.2957C11.9158 13.7989 13.9765 11.748 16.4851 11.748C18.9937 11.748 21.0543 13.7989 21.0543 16.2957C21.0543 18.7924 18.9937 20.8433 16.4851 20.8433Z" fill="url(#paint0_linear_84_449)"/>
<defs>
<linearGradient id="paint0_linear_84_449" x1="16.5" y1="0" x2="16.5" y2="33" gradientUnits="userSpaceOnUse">
<stop stop-color="#166B6A"/>
<stop offset="1" stop-color="#06B8B7"/>
</linearGradient>
</defs>
</svg>
